<?xml version="1.0" encoding="utf-8"?>
<!-- Generator: Adobe Illustrator 22.0.1, SVG Export Plug-In . SVG Version: 6.00 Build 0)  -->
<svg version="1.1" id="Layer_1" xmlns="http://www.w3.org/2000/svg" xmlns:xlink="http://www.w3.org/1999/xlink" x="0px" y="0px"
	 viewBox="0 0 511 119" style="enable-background:new 0 0 511 119;" xml:space="preserve">
<style type="text/css">
	.st0{fill:#FFFFFF;}
	.st1{fill:#00E4AC;}
</style>
<g>
	<path class="st0" d="M145,95.2c-6.3,0-11-1.6-14.1-4.9c-3-3.3-4.5-8.8-4.5-16.6V49.6c0-7.7,1.5-13.2,4.5-16.5c3-3.3,7.7-5,14.1-5
		h14.1v10.1h-15.2c-2.8,0-4.8,0.8-6.2,2.3c-1.4,1.6-2,3.7-2,6.4v29.5c0,2.7,0.7,4.8,2,6.4c1.3,1.6,3.4,2.3,6.2,2.3h15.2v10.1H145z"
		/>
	<path class="st0" d="M206.8,90.2c-3,3.3-7.7,5-14.1,5h-3.6c-6.3,0-11-1.7-14.1-5c-3-3.3-4.5-8.8-4.5-16.5V49.6
		c0-7.7,1.5-13.2,4.5-16.5c3-3.3,7.7-5,14.1-5h3.6c6.3,0,11,1.7,14.1,5c3,3.3,4.5,8.8,4.5,16.5v24.1
		C211.4,81.4,209.9,86.9,206.8,90.2z M202.1,46.9c0-2.7-0.7-4.8-2-6.4c-1.4-1.6-3.4-2.3-6.2-2.3h-5.8c-2.8,0-4.8,0.8-6.2,2.3
		c-1.4,1.6-2,3.7-2,6.4v29.5c0,2.7,0.7,4.8,2,6.4c1.3,1.6,3.4,2.3,6.2,2.3h5.8c2.8,0,4.8-0.8,6.2-2.3c1.3-1.6,2-3.7,2-6.4V46.9z"/>
	<path class="st0" d="M253.4,95.2v-3.1c-2.4,2.1-5.3,3.1-8.8,3.1h-4.5c-6.3,0-11-1.6-14.1-4.9c-3-3.3-4.5-8.8-4.5-16.6V49.6
		c0-7.7,1.5-13.2,4.5-16.5c3-3.3,7.7-5,14.1-5h12.7V1.3h9.3v93.9H253.4z M249.2,84.3c0.9-0.5,1.6-1.2,2.2-1.9
		c0.5-0.7,0.9-1.5,1.1-2.4c0.2-0.9,0.3-1.7,0.3-2.3V38.2H239c-2.8,0-4.8,0.8-6.2,2.3c-1.4,1.6-2,3.7-2,6.4v29.5c0,2.7,0.7,4.8,2,6.4
		c1.3,1.6,3.4,2.3,6.2,2.3h6.7C247.1,85.1,248.2,84.9,249.2,84.3z"/>
	<path class="st0" d="M292.1,95.2c-6.3,0-11-1.6-14.1-4.9c-3-3.3-4.5-8.8-4.5-16.6V49.6c0-7.7,1.3-13.2,4-16.5c2.7-3.3,7.2-5,13.5-5
		h5.1c5.3,0,9.2,1.8,11.8,5.4c2.6,3.6,3.9,8.7,3.9,15.4v17.4h-29.1v10.1c0,2.7,0.7,4.8,2,6.4c1.3,1.6,3.4,2.3,6.2,2.3h17.4v10.1
		H292.1z M282.8,56.3h20V46.2c0-2.3-0.6-4.2-1.9-5.8c-1.2-1.5-2.8-2.3-4.7-2.3h-6.3c-2.8,0-4.6,0.8-5.6,2.3c-1,1.6-1.5,3.7-1.5,6.4
		V56.3z"/>
	<path class="st0" d="M323.6,118V28.1h8.8v3.2c1.2-1.2,2.6-2,4-2.5c1.5-0.5,3-0.7,4.7-0.7h3.9c6.3,0,11,1.6,14.1,4.9
		c3,3.3,4.5,8.8,4.5,16.6v24.1c0,7.7-1.5,13.2-4.5,16.5c-3,3.3-7.7,5-14.1,5h-12.1V118H323.6z M336.6,39c-0.9,0.5-1.6,1.2-2.2,1.9
		c-0.5,0.7-0.9,1.5-1.1,2.3c-0.2,0.9-0.3,1.6-0.3,2.3v39.6h13.2c2.8,0,4.8-0.8,6.2-2.3c1.3-1.6,2-3.7,2-6.4V46.9
		c0-2.7-0.7-4.8-2-6.4c-1.4-1.6-3.4-2.3-6.2-2.3H340C338.6,38.2,337.5,38.5,336.6,39z"/>
	<path class="st0" d="M410.3,90.2c-3,3.3-7.7,5-14.1,5h-3.6c-6.3,0-11-1.7-14.1-5c-3-3.3-4.5-8.8-4.5-16.5V49.6
		c0-7.7,1.5-13.2,4.5-16.5c3-3.3,7.7-5,14.1-5h3.6c6.3,0,11,1.7,14.1,5c3,3.3,4.5,8.8,4.5,16.5v24.1
		C414.8,81.4,413.3,86.9,410.3,90.2z M405.5,46.9c0-2.7-0.7-4.8-2-6.4c-1.4-1.6-3.4-2.3-6.2-2.3h-5.8c-2.8,0-4.8,0.8-6.2,2.3
		c-1.4,1.6-2,3.7-2,6.4v29.5c0,2.7,0.7,4.8,2,6.4c1.3,1.6,3.4,2.3,6.2,2.3h5.8c2.8,0,4.8-0.8,6.2-2.3c1.3-1.6,2-3.7,2-6.4V46.9z"/>
	<path class="st0" d="M457.7,91.2c-2.8,2.7-6.9,4-12.1,4h-16.3V85.1h17.4c4,0,6-2,6-6V72c0-4-1.6-6-4.7-6h-4c-5,0-8.8-1.3-11.4-4
		c-2.6-2.6-3.8-7-3.8-13.1V45c0-6.3,1.4-10.6,4.3-13.1c2.8-2.5,6.9-3.8,12.1-3.8h14.7v10.1H444c-1.8,0-3.2,0.5-4.3,1.5
		c-1.1,1-1.7,2.5-1.7,4.6v4.8c0,2.1,0.5,3.7,1.6,4.6c1.1,0.9,2.3,1.4,3.7,1.4h3.7c4.9,0,8.6,1.5,11.2,4.4c2.6,2.9,3.8,7.2,3.8,12.9
		v6C462,84.2,460.6,88.5,457.7,91.2z"/>
	<path class="st0" d="M496.2,95.2c-3.9,0-6.7-1.5-8.6-4.5c-1.9-3-2.8-6.9-2.8-11.6V38.2h-10.4V28.1h10.4V12h9.3v16.1h16v10.1h-16
		v41.6c0,2.1,0.4,3.5,1.2,4.2c0.8,0.8,2,1.1,3.7,1.1h11v10.1H496.2z"/>
</g>
<g>
	<path class="st1" d="M41.5,86.7l-12.8-0.1c-4.4,0-7.6-0.8-9.8-2.5c-2.1-1.7-3.2-4-3.2-6.8V45.6c0-2.9,0.6-6.8,3.2-6.8
		c3.7-0.1,3.8-0.1,8.2-0.1l30.3,0.4L61.5,28H29.3c-9.6,0-15.5,0.4-21.1,3C3,33.4,1,40.3,1,48.5v25.9c0,8.3,2.4,14.3,7.2,17.8
		c4.8,3.5,12.2,5.2,22.2,5.2l7.4,0L41.5,86.7z"/>
	<path class="st1" d="M103.8,33.3c-4.4-3.2-11-4.9-19.8-5.2l-3.7,10.8c4,0.1,10.8,0.9,12.8,2.5c2.1,1.7,3.2,4,3.2,6.8v31.6
		c0,2.9-1.1,5.2-3.2,6.8c-2,1.6-19.8-0.1-23.9-0.1l-4.4,10.8c8.8-0.3,34.6,0.5,39-2.8c4.8-3.5,7.2-9.4,7.2-17.7V51.1
		C111,42.7,108.6,36.8,103.8,33.3z"/>
	<polygon class="st1" points="69.2,28 37.8,113 52.6,113 84,28 	"/>
</g>
</svg>
